<svg xmlns="http://www.w3.org/2000/svg" version="1.1" xmlns:xlink="http://www.w3.org/1999/xlink" viewBox="0 0 200 200"><rect width="200" height="200" fill="url('#gradient')"></rect><defs><linearGradient id="gradient" gradientTransform="rotate(0 0.5 0.5)"><stop offset="0%" stop-color="#000000"></stop><stop offset="100%" stop-color="#ffffff"></stop></linearGradient></defs><g><g fill="#ffffff" transform="matrix(2.3019857624578495,0,0,2.3019857624578495,7.528335402948926,117.04843078583266)" stroke="#0e5278" stroke-width="0.2"><path d="M1.07-14.22L5.58-14.22L8.75-4.33L11.91-14.22L16.43-14.22L16.43 0L12.99 0L12.99-3.32L13.32-10.12L9.88 0L7.62 0L4.17-10.13L4.50-3.32L4.50 0L1.07 0L1.07-14.22ZM27.70 0L24.40 0Q24.23-0.32 24.09-0.95L24.09-0.95Q23.18 0.20 21.55 0.20L21.55 0.20Q20.06 0.20 19.01-0.71Q17.97-1.61 17.97-2.98L17.97-2.98Q17.97-4.70 19.24-5.58Q20.51-6.46 22.93-6.46L22.93-6.46L23.95-6.46L23.95-7.01Q23.95-8.47 22.69-8.47L22.69-8.47Q21.51-8.47 21.51-7.31L21.51-7.31L18.22-7.31Q18.22-8.85 19.53-9.80Q20.83-10.76 22.85-10.76Q24.87-10.76 26.04-9.78Q27.22-8.79 27.25-7.07L27.25-7.07L27.25-2.39Q27.27-0.94 27.70-0.17L27.70-0.17L27.70 0ZM22.34-2.15L22.34-2.15Q22.96-2.15 23.36-2.41Q23.77-2.68 23.95-3.01L23.95-3.01L23.95-4.70L22.99-4.70Q21.27-4.70 21.27-3.15L21.27-3.15Q21.27-2.71 21.57-2.43Q21.88-2.15 22.34-2.15ZM35.52-10.64L35.46-7.59L34.38-7.67Q32.82-7.67 32.38-6.69L32.38-6.69L32.38 0L29.09 0L29.09-10.57L32.18-10.57L32.29-9.21Q33.12-10.76 34.60-10.76L34.60-10.76Q35.13-10.76 35.52-10.64L35.52-10.64ZM43.19 0L40.89-3.94L39.96-3.01L39.96 0L36.67 0L36.67-15.01L39.96-15.01L39.96-7.04L40.29-7.48L42.77-10.57L46.72-10.57L43.02-6.22L46.96 0L43.19 0ZM54.13 0L51.83-3.94L50.90-3.01L50.90 0L47.61 0L47.61-15.01L50.90-15.01L50.90-7.04L51.23-7.48L53.71-10.57L57.66-10.57L53.96-6.22L57.90 0L54.13 0ZM61.74-15L61.74-9.43Q62.79-10.76 64.43-10.76L64.43-10.76Q66.18-10.76 67.07-9.73Q67.96-8.69 67.98-6.67L67.98-6.67L67.98 0L64.68 0L64.68-6.59Q64.68-7.43 64.34-7.83Q63.99-8.22 63.17-8.22L63.17-8.22Q62.16-8.22 61.74-7.58L61.74-7.58L61.74 0L58.45 0L58.45-15L61.74-15ZM69.75-10.57L72.83-10.57L72.94-9.33Q74.03-10.76 75.96-10.76L75.96-10.76Q77.61-10.76 78.42-9.78Q79.24-8.79 79.27-6.81L79.27-6.81L79.27 0L75.97 0L75.97-6.67Q75.97-7.47 75.64-7.85Q75.32-8.22 74.47-8.22L74.47-8.22Q73.51-8.22 73.04-7.46L73.04-7.46L73.04 0L69.75 0L69.75-10.57Z"></path></g></g></svg>